<svg width="1226" height="1226" viewBox="0 0 1226 1226" fill="none" xmlns="http://www.w3.org/2000/svg">
<rect width="1226" height="1226" rx="613" fill="black"/>
<path d="M1076.59 386.043L1107.75 305.458L1106.4 300.471L798.283 381.572C831.122 334.074 819.831 296 819.831 296C819.831 296 721.45 358.803 647.027 357.118C572.604 355.467 548.646 335.622 434.533 371.976C320.421 408.33 288.201 519.869 255.12 543.841C222.039 567.814 118.254 645.888 118.254 645.888L118.495 647.298L212.057 617.547C212.057 617.547 186.411 641.726 131.885 715.122C131.885 715.122 130.921 714.263 129.338 712.749L129.407 713.265C129.407 713.265 173.227 780.195 216.222 767.779C220.525 766.541 225.413 764.477 230.748 761.76C248.063 771.391 270.645 780.883 295.602 783.463C295.602 783.463 278.7 763.858 264.621 741.537C268.442 739.095 272.332 736.55 276.29 733.97L274.466 735.277L310.094 748.347L306.169 714.882C306.273 714.813 306.41 714.744 306.514 714.675L341.522 727.504L337.15 697.066C341.591 694.761 346.031 692.56 350.438 690.496L386.926 552.543L537.837 449.671L525.858 479.835C495.325 554.985 437.838 572.767 437.838 572.767L413.845 581.847C396.014 602.896 388.51 608.089 382.382 678.803C396.771 675.191 410.506 674.331 422.933 677.668C487.442 695.002 509.748 772.663 492.399 794.159C488.061 799.525 477.7 808.742 464.619 819.507H438.458L438.113 840.694C437.218 841.382 436.323 842.104 435.428 842.792H408.819L408.475 863.463C406.1 865.251 403.793 867.005 401.487 868.725C376.461 869.241 344.792 847.435 344.792 847.435C344.792 867.246 361.315 897.822 361.315 897.822C361.315 897.822 362.382 897.306 364.241 896.412C362.623 897.581 361.728 898.235 361.728 898.235C361.728 898.235 428.716 942.843 470.884 926.334C508.371 911.648 605.444 835.157 689.23 798.974L942.791 732.216L976.216 645.681L782.999 696.55V618.82L1009.71 559.147L1043.13 472.612L783.033 541.09V463.36L1076.59 386.043ZM616.391 550.823L676.562 534.968L677.354 537.96L658.593 586.559L596.219 602.964L616.391 550.823ZM637.182 654.796L574.808 671.202L594.979 619.026L655.151 603.171L655.943 606.163L637.182 654.796ZM718.421 637.358L656.046 653.764L676.218 601.589L736.39 585.733L737.181 588.725L718.421 637.358Z" fill="white"/>
</svg>
