<svg width="24" height="24" viewBox="0 0 24 24" fill="none" xmlns="http://www.w3.org/2000/svg">
  <!-- EU blue background -->
  <rect x="2" y="4" width="20" height="16" rx="2" fill="#003399"/>
  
  <!-- Shield for protection -->
  <path d="M12 6L16 8V13C16 15.5 12 18 12 18C12 18 8 15.5 8 13V8L12 6Z" 
        fill="#FFD700" stroke="#FFFFFF" stroke-width="0.5"/>
  
  <!-- Lock symbol for data protection -->
  <rect x="10.5" y="11" width="3" height="3" rx="0.5" fill="#003399"/>
  <path d="M11 11V10C11 9.5 11.5 9 12 9C12.5 9 13 9.5 13 10V11" 
        stroke="#003399" stroke-width="1" fill="none"/>
  
  <!-- Stars around (simplified EU flag reference) -->
  <circle cx="6" cy="8" r="0.5" fill="#FFD700"/>
  <circle cx="18" cy="8" r="0.5" fill="#FFD700"/>
  <circle cx="6" cy="16" r="0.5" fill="#FFD700"/>
  <circle cx="18" cy="16" r="0.5" fill="#FFD700"/>
</svg>
