<svg width="32" height="32" viewBox="0 0 32 32" fill="none" xmlns="http://www.w3.org/2000/svg">
  <!-- MANDATORY COMPLIANCE RULES - XALA UI SYSTEM v5 -->
  <!-- ❌ NO raw HTML elements (div, span, p, h1-h6, button, input, etc.) -->
  <!-- ✅ ONLY semantic components from @xala-technologies/ui-system -->
  <!-- ❌ NO hardcoded styling (no style={{}}, no arbitrary Tailwind values) -->
  <!-- ✅ MANDATORY design token usage for all colors, spacing, typography -->
  <!-- ✅ Enhanced 8pt Grid System - all spacing in 8px increments -->
  <!-- ✅ WCAG 2.2 AAA compliance for accessibility -->
  <!-- ❌ NO hardcoded user-facing text - ALL text must use t() function -->
  <!-- ✅ MANDATORY localization: English, Norwegian Bokmål, French, Arabic -->
  <!-- ✅ Explicit TypeScript return types (no 'any' types) -->
  <!-- ✅ SOLID principles and component composition -->
  <!-- ✅ Maximum 200 lines per file, 20 lines per function -->
  
  <rect width="32" height="32" rx="6" fill="#c21325"/>
  <path d="M16 4c6.627 0 12 5.373 12 12s-5.373 12-12 12S4 22.627 4 16 9.373 4 16 4z" fill="white"/>
  <path d="M16 6c5.523 0 10 4.477 10 10s-4.477 10-10 10S6 21.523 6 16 10.477 6 16 6z" fill="#c21325"/>
  <path d="M12 12h8v2h-8v-2zm0 3h6v2h-6v-2zm0 3h4v2h-4v-2z" fill="white"/>
</svg>
