<svg width="24" height="24" viewBox="0 0 24 24" fill="none" xmlns="http://www.w3.org/2000/svg">
  <rect width="24" height="24" rx="4" fill="url(#python-gradient)"/>
  <path d="M12 4C8 4 4 6 4 8.5v7C4 18 8 20 12 20s8-2 8-4.5v-7C20 6 16 4 12 4z" fill="white"/>
  <path d="M12 6C9 6 6 7 6 8.5S9 11 12 11s6-1 6-2.5S15 6 12 6z" fill="#3776AB"/>
  <path d="M12 13C9 13 6 14 6 15.5S9 18 12 18s6-1 6-2.5S15 13 12 13z" fill="#FFD43B"/>
  <defs>
    <linearGradient id="python-gradient" x1="0%" y1="0%" x2="100%" y2="100%">
      <stop offset="0%" style="stop-color:#3776AB"/>
      <stop offset="100%" style="stop-color:#FFD43B"/>
    </linearGradient>
  </defs>
</svg>
