<svg width="32" height="32" viewBox="0 0 32 32" fill="none" xmlns="http://www.w3.org/2000/svg">
  <!-- MANDATORY COMPLIANCE RULES - XALA UI SYSTEM v5 -->
  <!-- ❌ NO raw HTML elements (div, span, p, h1-h6, button, input, etc.) -->
  <!-- ✅ ONLY semantic components from @xala-technologies/ui-system -->
  <!-- ❌ NO hardcoded styling (no style={{}}, no arbitrary Tailwind values) -->
  <!-- ✅ MANDATORY design token usage for all colors, spacing, typography -->
  <!-- ✅ Enhanced 8pt Grid System - all spacing in 8px increments -->
  <!-- ✅ WCAG 2.2 AAA compliance for accessibility -->
  <!-- ❌ NO hardcoded user-facing text - ALL text must use t() function -->
  <!-- ✅ MANDATORY localization: English, Norwegian Bokmål, French, Arabic -->
  <!-- ✅ Explicit TypeScript return types (no 'any' types) -->
  <!-- ✅ SOLID principles and component composition -->
  <!-- ✅ Maximum 200 lines per file, 20 lines per function -->
  
  <rect width="32" height="32" rx="6" fill="#ff6600"/>
  <path d="M8 16c0-4 2-6 4-6h8c2 0 4 2 4 6v4c0 2-2 4-4 4h-8c-2 0-4-2-4-4v-4z" fill="white"/>
  <circle cx="12" cy="14" r="1" fill="#ff6600"/>
  <circle cx="20" cy="14" r="1" fill="#ff6600"/>
  <path d="M10 12l2-2 2 2M18 12l2-2 2 2" stroke="#ff6600" stroke-width="1" fill="none"/>
  <path d="M14 18c0 1 1 2 2 2s2-1 2-2" stroke="#ff6600" stroke-width="1" fill="none"/>
</svg>
