<svg width="24" height="24" viewBox="0 0 24 24" fill="none" xmlns="http://www.w3.org/2000/svg">
  <!-- Tailwind CSS logo inspired design -->
  <path d="M12 6C8 6 6 8 6 12C8 10 10 9.5 12 10.5C13.1 11.1 13.9 11.9 14.5 13C15.5 14.5 16.5 15 18 15C22 15 24 13 24 9C22 11 20 11.5 18 10.5C16.9 9.9 16.1 9.1 15.5 8C14.5 6.5 13.5 6 12 6Z" fill="currentColor" opacity="0.8"/>
  <path d="M6 12C2 12 0 14 0 18C2 16 4 15.5 6 16.5C7.1 17.1 7.9 17.9 8.5 19C9.5 20.5 10.5 21 12 21C16 21 18 19 18 15C16 17 14 17.5 12 16.5C10.9 15.9 10.1 15.1 9.5 14C8.5 12.5 7.5 12 6 12Z" fill="currentColor" opacity="0.6"/>
  
  <!-- Simplified version for 24x24 -->
  <g transform="scale(0.6) translate(8, 8)">
    <path d="M12 6C8 6 6 8 6 12C8 10 10 9.5 12 10.5C13.1 11.1 13.9 11.9 14.5 13C15.5 14.5 16.5 15 18 15C22 15 24 13 24 9C22 11 20 11.5 18 10.5C16.9 9.9 16.1 9.1 15.5 8C14.5 6.5 13.5 6 12 6Z" fill="#06B6D4"/>
    <path d="M6 12C2 12 0 14 0 18C2 16 4 15.5 6 16.5C7.1 17.1 7.9 17.9 8.5 19C9.5 20.5 10.5 21 12 21C16 21 18 19 18 15C16 17 14 17.5 12 16.5C10.9 15.9 10.1 15.1 9.5 14C8.5 12.5 7.5 12 6 12Z" fill="#0891B2"/>
  </g>
</svg>
