<svg width="24" height="24" viewBox="0 0 24 24" fill="none" xmlns="http://www.w3.org/2000/svg">
  <rect width="24" height="24" rx="4" fill="url(#vite-gradient)"/>
  <path d="m8.286 10.578.512-8.657a.306.306 0 0 1 .247-.284L17.022 1.5a.306.306 0 0 1 .353.233l1.44 8.593a.306.306 0 0 1-.271.353l-8.982.81a.306.306 0 0 1-.276-.911z" fill="#FFD62E"/>
  <path d="m6.649 10.709-4.69.423a.306.306 0 0 0-.271.353l1.44 8.593a.306.306 0 0 0 .353.233l7.977-.137a.306.306 0 0 0 .247-.284l.512-8.657a.306.306 0 0 0-.276-.911l-5.292.387z" fill="#41D1FF"/>
  <defs>
    <linearGradient id="vite-gradient" x1="0%" y1="0%" x2="100%" y2="100%">
      <stop offset="0%" style="stop-color:#41D1FF"/>
      <stop offset="100%" style="stop-color:#BD34FE"/>
    </linearGradient>
  </defs>
</svg>
